<svg width="3508" height="944" viewBox="0 0 3508 944" fill="none" xmlns="http://www.w3.org/2000/svg">
<path opacity="0.985" fill-rule="evenodd" clip-rule="evenodd" d="M539.5 179.5C560.535 177.925 580.535 181.759 599.5 191C609.817 195.824 619.817 201.158 629.5 207C644.625 218.119 660.291 228.452 676.5 238C741.445 287.318 805.112 338.318 867.5 391C825.229 407.522 781.395 417.022 736 419.5C721.503 419.445 707.336 417.278 693.5 413C688.554 411.194 683.888 408.861 679.5 406C669.286 392.112 657.952 379.112 645.5 367C617.2 343.674 584.867 334.84 548.5 340.5C533.673 336.669 520.839 329.336 510 318.5C505.092 313.018 503.426 306.685 505 299.5C549.505 274.999 596.338 269.166 645.5 282C657.53 286.113 669.197 290.78 680.5 296C657.667 278.583 632.333 265.917 604.5 258C595.454 257.193 586.454 257.526 577.5 259C557.462 263.679 538.129 270.346 519.5 279C495.372 290.228 472.038 302.728 449.5 316.5C448.526 308.615 447.526 300.781 446.5 293C431.17 292.5 415.837 292.333 400.5 292.5C401.715 310.162 401.715 327.829 400.5 345.5C379.676 356.078 359.009 366.912 338.5 378C313.354 387.482 288.687 386.482 264.5 375C261.167 372.667 257.833 370.333 254.5 368C252.789 366.867 252.289 365.367 253 363.5C266.622 350.205 281.122 338.038 296.5 327C318.661 311.752 340.994 296.752 363.5 282C416.838 248.66 470.838 216.327 525.5 185C530.159 182.842 534.825 181.009 539.5 179.5Z" fill="#504A77"/>
<path opacity="0.978" fill-rule="evenodd" clip-rule="evenodd" d="M975.5 264.5C993.833 264.5 1012.17 264.5 1030.5 264.5C1044.56 307.169 1058.72 349.835 1073 392.5C1087.33 350.167 1101.67 307.833 1116 265.5C1134.09 264.508 1152.26 264.174 1170.5 264.5C1170.5 320.833 1170.5 377.167 1170.5 433.5C1158.5 433.5 1146.5 433.5 1134.5 433.5C1134.67 391.499 1134.5 349.499 1134 307.5C1119.93 349.204 1105.77 390.871 1091.5 432.5C1079.18 433.499 1066.85 433.832 1054.5 433.5C1040.78 392.498 1026.94 351.498 1013 310.5C1012.5 351.499 1012.33 392.499 1012.5 433.5C1000.17 433.5 987.833 433.5 975.5 433.5C975.5 377.167 975.5 320.833 975.5 264.5Z" fill="#504A77"/>
<path opacity="0.973" fill-rule="evenodd" clip-rule="evenodd" d="M1908.5 264.5C1920.83 264.5 1933.17 264.5 1945.5 264.5C1945.33 302.168 1945.5 339.835 1946 377.5C1949.06 390.898 1957.23 399.398 1970.5 403C1989.14 404.354 2007.8 404.854 2026.5 404.5C2026.5 414.167 2026.5 423.833 2026.5 433.5C2002.5 433.667 1978.5 433.5 1954.5 433C1926.07 427.675 1910.9 410.508 1909 381.5C1908.5 342.501 1908.33 303.501 1908.5 264.5Z" fill="#504A77"/>
<path opacity="0.96" fill-rule="evenodd" clip-rule="evenodd" d="M2092.5 264.5C2103.5 264.5 2114.5 264.5 2125.5 264.5C2125.33 297.835 2125.5 331.168 2126 364.5C2141.02 347.648 2155.85 330.648 2170.5 313.5C2183.82 312.334 2197.15 312.167 2210.5 313C2193.5 332 2176.5 351 2159.5 370C2178.5 391 2197.5 412 2216.5 433C2202.5 433.667 2188.5 433.667 2174.5 433C2157.98 414.111 2141.81 394.945 2126 375.5C2125.5 394.83 2125.33 414.164 2125.5 433.5C2114.5 433.5 2103.5 433.5 2092.5 433.5C2092.5 377.167 2092.5 320.833 2092.5 264.5Z" fill="#504A77"/>
<path opacity="0.983" fill-rule="evenodd" clip-rule="evenodd" d="M2342.5 264.5C2382.17 264.5 2421.83 264.5 2461.5 264.5C2461.5 274.167 2461.5 283.833 2461.5 293.5C2428.47 293.059 2395.47 293.559 2362.5 295C2349.08 300.923 2345.24 310.757 2351 324.5C2353.59 327.762 2356.76 330.262 2360.5 332C2383.46 333.281 2406.46 333.948 2429.5 334C2450.32 336.816 2463.49 348.316 2469 368.5C2474.42 390.118 2469.25 408.618 2453.5 424C2447.1 428.365 2440.1 431.365 2432.5 433C2392.17 433.5 2351.83 433.667 2311.5 433.5C2311.5 423.833 2311.5 414.167 2311.5 404.5C2342.5 404.667 2373.5 404.5 2404.5 404C2420.89 402.61 2428.06 393.777 2426 377.5C2423.3 370.137 2418.14 365.637 2410.5 364C2387.46 363.936 2364.46 363.27 2341.5 362C2319.98 357.475 2307.81 344.309 2305 322.5C2301.24 292.295 2313.74 272.962 2342.5 264.5Z" fill="#504A77"/>
<path opacity="0.955" fill-rule="evenodd" clip-rule="evenodd" d="M2039.5 271.5C2050.5 271.5 2061.5 271.5 2072.5 271.5C2072.5 281.167 2072.5 290.833 2072.5 300.5C2061.5 300.5 2050.5 300.5 2039.5 300.5C2039.5 290.833 2039.5 281.167 2039.5 271.5Z" fill="#504A77"/>
<path opacity="0.955" fill-rule="evenodd" clip-rule="evenodd" d="M2856.5 271.5C2867.5 271.5 2878.5 271.5 2889.5 271.5C2889.5 281.167 2889.5 290.833 2889.5 300.5C2878.5 300.5 2867.5 300.5 2856.5 300.5C2856.5 290.833 2856.5 281.167 2856.5 271.5Z" fill="#504A77"/>
<path opacity="0.91" fill-rule="evenodd" clip-rule="evenodd" d="M1269.5 276.5C1274.84 276.334 1280.18 276.501 1285.5 277C1277.5 285 1269.5 293 1261.5 301C1256.17 301.667 1250.83 301.667 1245.5 301C1253.7 292.965 1261.7 284.798 1269.5 276.5Z" fill="#504A77"/>
<path opacity="0.977" fill-rule="evenodd" clip-rule="evenodd" d="M1228.5 312.5C1249.5 312.5 1270.5 312.5 1291.5 312.5C1291.5 320.5 1291.5 328.5 1291.5 336.5C1276.83 336.333 1262.16 336.5 1247.5 337C1229.61 335.232 1219.94 343.232 1218.5 361C1242.16 361.5 1265.83 361.667 1289.5 361.5C1289.5 369.833 1289.5 378.167 1289.5 386.5C1266.17 386.5 1242.83 386.5 1219.5 386.5C1219.04 396.105 1223.04 402.938 1231.5 407C1236.77 408.106 1242.1 408.773 1247.5 409C1262.16 409.5 1276.83 409.667 1291.5 409.5C1291.5 417.5 1291.5 425.5 1291.5 433.5C1268.79 433.947 1246.12 433.447 1223.5 432C1199.47 425.296 1186.3 409.463 1184 384.5C1181.41 365.948 1184.74 348.614 1194 332.5C1202.99 321.313 1214.49 314.646 1228.5 312.5Z" fill="#504A77"/>
<path opacity="0.973" fill-rule="evenodd" clip-rule="evenodd" d="M1306.5 312.5C1334.84 312.333 1363.17 312.5 1391.5 313C1406.37 317.202 1415.87 326.702 1420 341.5C1420.5 372.165 1420.67 402.832 1420.5 433.5C1409.83 433.5 1399.17 433.5 1388.5 433.5C1388.67 405.831 1388.5 378.165 1388 350.5C1385.32 342.064 1379.49 337.898 1370.5 338C1360.17 337.5 1349.84 337.334 1339.5 337.5C1339.5 369.5 1339.5 401.5 1339.5 433.5C1328.5 433.5 1317.5 433.5 1306.5 433.5C1306.5 393.167 1306.5 352.833 1306.5 312.5Z" fill="#504A77"/>
<path opacity="0.979" fill-rule="evenodd" clip-rule="evenodd" d="M1441.5 312.5C1468.5 312.333 1495.5 312.5 1522.5 313C1542.74 317.906 1553.57 330.74 1555 351.5C1555.5 378.831 1555.67 406.165 1555.5 433.5C1523.83 433.667 1492.16 433.5 1460.5 433C1445.49 429.818 1436.65 420.651 1434 405.5C1430.28 383.084 1439.11 368.584 1460.5 362C1481.16 361.5 1501.83 361.333 1522.5 361.5C1524.21 352.917 1521.87 345.75 1515.5 340C1513.91 339.138 1512.25 338.471 1510.5 338C1487.53 336.588 1464.53 336.088 1441.5 336.5C1441.5 328.5 1441.5 320.5 1441.5 312.5ZM1483.5 385.5C1496.5 385.5 1509.5 385.5 1522.5 385.5C1522.5 393.5 1522.5 401.5 1522.5 409.5C1509.5 409.667 1496.5 409.5 1483.5 409C1470.85 409.365 1466.02 403.532 1469 391.5C1473.07 387.487 1477.91 385.487 1483.5 385.5Z" fill="#504A77"/>
<path opacity="0.976" fill-rule="evenodd" clip-rule="evenodd" d="M1613.5 312.5C1641.17 312.5 1668.83 312.5 1696.5 312.5C1696.67 354.501 1696.5 396.501 1696 438.5C1694.96 460.78 1683.8 474.946 1662.5 481C1635.5 481.5 1608.5 481.667 1581.5 481.5C1581.5 473.5 1581.5 465.5 1581.5 457.5C1605.2 457.915 1628.86 457.415 1652.5 456C1657.21 454.895 1660.37 452.062 1662 447.5C1663.23 442.915 1663.73 438.248 1663.5 433.5C1646.83 433.667 1630.16 433.5 1613.5 433C1589.9 428.735 1575.4 414.901 1570 391.5C1567.06 374.463 1568.39 357.796 1574 341.5C1582.51 325.344 1595.67 315.677 1613.5 312.5ZM1632.5 337.5C1642.83 337.5 1653.17 337.5 1663.5 337.5C1663.5 361.167 1663.5 384.833 1663.5 408.5C1650.13 408.805 1636.8 408.305 1623.5 407C1615.16 404.659 1609.33 399.493 1606 391.5C1600.15 375.574 1601.81 360.574 1611 346.5C1617.08 340.646 1624.25 337.646 1632.5 337.5Z" fill="#504A77"/>
<path opacity="0.977" fill-rule="evenodd" clip-rule="evenodd" d="M1754.5 312.5C1775.5 312.5 1796.5 312.5 1817.5 312.5C1817.5 320.5 1817.5 328.5 1817.5 336.5C1802.83 336.333 1788.16 336.5 1773.5 337C1755.19 335.157 1745.85 343.324 1745.5 361.5C1768.83 361.5 1792.17 361.5 1815.5 361.5C1815.5 369.833 1815.5 378.167 1815.5 386.5C1792.17 386.5 1768.83 386.5 1745.5 386.5C1745.05 396.11 1749.05 402.943 1757.5 407C1762.77 408.106 1768.1 408.773 1773.5 409C1788.16 409.5 1802.83 409.667 1817.5 409.5C1817.5 417.5 1817.5 425.5 1817.5 433.5C1794.79 433.947 1772.12 433.447 1749.5 432C1725.47 425.296 1712.3 409.463 1710 384.5C1707.41 365.948 1710.74 348.614 1720 332.5C1728.99 321.313 1740.49 314.646 1754.5 312.5Z" fill="#504A77"/>
<path opacity="0.953" fill-rule="evenodd" clip-rule="evenodd" d="M2039.5 312.5C2050.5 312.5 2061.5 312.5 2072.5 312.5C2072.5 352.833 2072.5 393.167 2072.5 433.5C2061.5 433.5 2050.5 433.5 2039.5 433.5C2039.5 393.167 2039.5 352.833 2039.5 312.5Z" fill="#504A77"/>
<path opacity="0.977" fill-rule="evenodd" clip-rule="evenodd" d="M2528.5 312.5C2549.5 312.5 2570.5 312.5 2591.5 312.5C2591.5 320.5 2591.5 328.5 2591.5 336.5C2576.83 336.333 2562.16 336.5 2547.5 337C2529.19 335.157 2519.85 343.324 2519.5 361.5C2542.83 361.5 2566.17 361.5 2589.5 361.5C2589.5 369.833 2589.5 378.167 2589.5 386.5C2566.17 386.5 2542.83 386.5 2519.5 386.5C2519.05 396.11 2523.05 402.943 2531.5 407C2536.77 408.106 2542.1 408.773 2547.5 409C2562.16 409.5 2576.83 409.667 2591.5 409.5C2591.5 417.5 2591.5 425.5 2591.5 433.5C2568.79 433.947 2546.12 433.447 2523.5 432C2499.47 425.296 2486.3 409.463 2484 384.5C2481.41 365.948 2484.74 348.614 2494 332.5C2502.99 321.313 2514.49 314.646 2528.5 312.5Z" fill="#504A77"/>
<path opacity="0.963" fill-rule="evenodd" clip-rule="evenodd" d="M2606.5 312.5C2628.84 312.333 2651.17 312.5 2673.5 313C2684.41 315.572 2691.91 322.072 2696 332.5C2697.4 342.434 2697.9 352.434 2697.5 362.5C2686.83 362.5 2676.17 362.5 2665.5 362.5C2668.74 342.072 2660.07 333.739 2639.5 337.5C2639.5 369.5 2639.5 401.5 2639.5 433.5C2628.5 433.5 2617.5 433.5 2606.5 433.5C2606.5 393.167 2606.5 352.833 2606.5 312.5Z" fill="#504A77"/>
<path opacity="0.973" fill-rule="evenodd" clip-rule="evenodd" d="M2704.5 313.5C2716.9 312.17 2729.4 312.17 2742 313.5C2752.55 340.986 2763.38 368.319 2774.5 395.5C2785.62 368.319 2796.45 340.986 2807 313.5C2819.42 312.345 2831.92 312.179 2844.5 313C2827.31 352.918 2810.31 392.918 2793.5 433C2780.59 433.822 2767.76 433.655 2755 432.5C2738.63 392.528 2721.8 352.862 2704.5 313.5Z" fill="#504A77"/>
<path opacity="0.953" fill-rule="evenodd" clip-rule="evenodd" d="M2856.5 312.5C2867.5 312.5 2878.5 312.5 2889.5 312.5C2889.5 352.833 2889.5 393.167 2889.5 433.5C2878.5 433.5 2867.5 433.5 2856.5 433.5C2856.5 393.167 2856.5 352.833 2856.5 312.5Z" fill="#504A77"/>
<path opacity="0.982" fill-rule="evenodd" clip-rule="evenodd" d="M2949.5 312.5C2970.5 312.5 2991.5 312.5 3012.5 312.5C3012.5 320.833 3012.5 329.167 3012.5 337.5C2997.83 337.333 2983.16 337.5 2968.5 338C2953.6 338.697 2944.1 346.197 2940 360.5C2936.35 375.481 2939.19 388.981 2948.5 401C2954.23 405.91 2960.89 408.243 2968.5 408C2983.16 408.5 2997.83 408.667 3012.5 408.5C3012.5 416.833 3012.5 425.167 3012.5 433.5C2989.79 433.947 2967.12 433.447 2944.5 432C2920.47 425.296 2907.3 409.463 2905 384.5C2902.41 365.948 2905.74 348.614 2915 332.5C2923.99 321.313 2935.49 314.646 2949.5 312.5Z" fill="#504A77"/>
<path opacity="0.977" fill-rule="evenodd" clip-rule="evenodd" d="M3067.5 312.5C3088.5 312.5 3109.5 312.5 3130.5 312.5C3130.5 320.5 3130.5 328.5 3130.5 336.5C3115.83 336.333 3101.16 336.5 3086.5 337C3068.19 335.157 3058.85 343.324 3058.5 361.5C3081.83 361.5 3105.17 361.5 3128.5 361.5C3128.5 369.833 3128.5 378.167 3128.5 386.5C3105.17 386.5 3081.83 386.5 3058.5 386.5C3058.05 396.11 3062.05 402.943 3070.5 407C3075.77 408.106 3081.1 408.773 3086.5 409C3101.16 409.5 3115.83 409.667 3130.5 409.5C3130.5 417.5 3130.5 425.5 3130.5 433.5C3107.79 433.947 3085.12 433.447 3062.5 432C3038.47 425.296 3025.3 409.463 3023 384.5C3020.41 365.948 3023.74 348.614 3033 332.5C3041.99 321.313 3053.49 314.646 3067.5 312.5Z" fill="#504A77"/>
<path opacity="0.983" fill-rule="evenodd" clip-rule="evenodd" d="M3170.5 312.5C3199.83 312.5 3229.17 312.5 3258.5 312.5C3258.5 320.5 3258.5 328.5 3258.5 336.5C3234.47 336.084 3210.47 336.584 3186.5 338C3180.68 339.285 3177.68 342.952 3177.5 349C3177.74 354.496 3180.41 358.163 3185.5 360C3203.14 361.196 3220.81 361.863 3238.5 362C3258.75 368.29 3267.58 382.124 3265 403.5C3262.82 419.342 3253.99 429.176 3238.5 433C3206.84 433.5 3175.17 433.667 3143.5 433.5C3143.5 425.5 3143.5 417.5 3143.5 409.5C3170.19 409.915 3196.86 409.415 3223.5 408C3231.15 404.037 3232.99 398.204 3229 390.5C3227.42 388.959 3225.59 387.792 3223.5 387C3205.86 385.804 3188.19 385.137 3170.5 385C3155.03 381.19 3146.19 371.357 3144 355.5C3141.22 333.696 3150.05 319.363 3170.5 312.5Z" fill="#504A77"/>
<path opacity="0.852" fill-rule="evenodd" clip-rule="evenodd" d="M209.5 333.5C210.465 334.721 210.298 336.054 209 337.5C201.252 348.662 193.752 359.995 186.5 371.5C196.152 381.653 205.986 391.653 216 401.5C216.667 402.167 216.667 402.833 216 403.5C203.584 395.708 191.084 388.041 178.5 380.5C167.183 390.649 156.016 400.983 145 411.5C152.471 398.431 160.638 385.598 169.5 373C159.47 363.304 149.803 353.304 140.5 343C152.582 349.634 164.749 356.467 177 363.5C188.318 354.015 199.152 344.015 209.5 333.5Z" fill="#504A77"/>
<path opacity="0.977" fill-rule="evenodd" clip-rule="evenodd" d="M551.5 395.5C552.497 414.993 552.83 434.66 552.5 454.5C532.833 454.5 513.167 454.5 493.5 454.5C498.765 420.903 518.098 401.236 551.5 395.5Z" fill="#504A77"/>
<path opacity="0.985" fill-rule="evenodd" clip-rule="evenodd" d="M564.5 395.5C597.356 401.356 617.023 420.689 623.5 453.5C603.845 454.5 584.178 454.833 564.5 454.5C564.5 434.833 564.5 415.167 564.5 395.5Z" fill="#504A77"/>
<path opacity="0.762" fill-rule="evenodd" clip-rule="evenodd" d="M321.5 432.5C322.239 432.369 322.906 432.536 323.5 433C318.833 440 314.167 447 309.5 454C333.149 476.21 331.815 478.043 305.5 459.5C299.05 464.447 293.05 469.947 287.5 476C286.833 476.667 286.167 476.667 285.5 476C290.167 469 294.833 462 299.5 455C277.38 434.119 278.88 432.286 304 449.5C310.337 444.329 316.17 438.663 321.5 432.5Z" fill="#504A77"/>
<path opacity="0.793" fill-rule="evenodd" clip-rule="evenodd" d="M225.5 453.5C227.028 453.517 227.528 454.184 227 455.5C221.957 463.087 216.79 470.587 211.5 478C218 484.5 224.5 491 231 497.5C231.667 498.167 231.667 498.833 231 499.5C223.152 494.243 215.152 489.243 207 484.5C200.178 490.654 193.345 496.82 186.5 503C185.833 503.667 185.167 503.667 184.5 503C189.515 495.323 194.515 487.656 199.5 480C194.253 472.748 188.253 466.082 181.5 460C182.5 459.333 183.5 459.333 184.5 460C191.369 464.366 198.369 468.532 205.5 472.5C212.819 466.848 219.485 460.515 225.5 453.5Z" fill="#504A77"/>
<path opacity="0.967" fill-rule="evenodd" clip-rule="evenodd" d="M492.5 464.5C512.5 464.5 532.5 464.5 552.5 464.5C552.5 484.167 552.5 503.833 552.5 523.5C532.5 523.5 512.5 523.5 492.5 523.5C492.5 503.833 492.5 484.167 492.5 464.5Z" fill="#504A77"/>
<path opacity="0.966" fill-rule="evenodd" clip-rule="evenodd" d="M564.5 464.5C584.167 464.5 603.833 464.5 623.5 464.5C623.5 484.167 623.5 503.833 623.5 523.5C603.833 523.5 584.167 523.5 564.5 523.5C564.5 503.833 564.5 484.167 564.5 464.5Z" fill="#504A77"/>
<path opacity="0.888" fill-rule="evenodd" clip-rule="evenodd" d="M1874.5 500.5C1884.36 498.786 1892.69 501.453 1899.5 508.5C1898.83 509.833 1897.83 510.833 1896.5 511.5C1890.19 505.863 1882.86 504.03 1874.5 506C1868.51 508.659 1864.67 513.159 1863 519.5C1861.53 561.133 1861.03 602.799 1861.5 644.5C1860.17 644.5 1858.83 644.5 1857.5 644.5C1857.5 611.167 1857.5 577.833 1857.5 544.5C1855.5 544.5 1853.5 544.5 1851.5 544.5C1851.5 543.167 1851.5 541.833 1851.5 540.5C1853.5 540.5 1855.5 540.5 1857.5 540.5C1857.33 533.159 1857.5 525.826 1858 518.5C1860.1 509.242 1865.6 503.242 1874.5 500.5Z" fill="#504A77"/>
<path opacity="0.985" fill-rule="evenodd" clip-rule="evenodd" d="M365.5 505.5C381.918 504.935 398.251 505.769 414.5 508C424.7 510.064 434.033 514.064 442.5 520C473.727 569.777 518.727 591.444 577.5 585C590.555 589.727 601.722 597.227 611 607.5C613.494 611.319 614.994 615.485 615.5 620C615.604 622.145 614.937 623.979 613.5 625.5C556.242 655.94 498.575 657.106 440.5 629C464.047 647.272 490.381 659.939 519.5 667C540.35 666.789 560.35 662.455 579.5 654C604.296 643.935 628.296 632.268 651.5 619C694.59 591.781 739.257 567.115 785.5 545C801.946 540.355 818.612 539.355 835.5 542C848.117 544.471 858.784 550.305 867.5 559.5C861.983 565.851 855.983 571.684 849.5 577C804.138 611.017 757.138 642.683 708.5 672C668.828 695.838 628.828 719.171 588.5 742C573.861 746.517 559.194 746.517 544.5 742C514.523 732.015 487.19 717.349 462.5 698C457.833 695.333 453.167 692.667 448.5 690C381.967 639.971 316.8 588.138 253 534.5C252.544 533.256 253.044 532.423 254.5 532C290.629 518.883 327.629 510.05 365.5 505.5Z" fill="#C4DFFD"/>
<path opacity="0.774" fill-rule="evenodd" clip-rule="evenodd" d="M2220.5 514.5C2227.57 518.728 2234.23 523.561 2240.5 529C2239.64 529.689 2238.98 530.522 2238.5 531.5C2238 532.521 2237.33 532.688 2236.5 532C2230.04 527.789 2224.04 523.122 2218.5 518C2218.98 516.697 2219.64 515.531 2220.5 514.5Z" fill="black"/>
<path opacity="0.795" fill-rule="evenodd" clip-rule="evenodd" d="M976.5 516.5C993.81 543.77 1010.64 571.437 1027 599.5C1028.5 603.039 1028.84 606.705 1028 610.5C1011.08 582.999 994.415 555.333 978 527.5C976.663 523.974 976.163 520.308 976.5 516.5Z" fill="#504A77"/>
<path opacity="0.885" fill-rule="evenodd" clip-rule="evenodd" d="M1155.5 518.5C1156.83 518.5 1158.17 518.5 1159.5 518.5C1159.06 542.538 1159.56 566.538 1161 590.5C1164.89 600.034 1172.05 604.368 1182.5 603.5C1182.5 604.833 1182.5 606.167 1182.5 607.5C1168.94 609.647 1160.1 604.314 1156 591.5C1155.5 575.837 1155.33 560.17 1155.5 544.5C1153.5 544.5 1151.5 544.5 1149.5 544.5C1149.5 543.167 1149.5 541.833 1149.5 540.5C1151.5 540.5 1153.5 540.5 1155.5 540.5C1155.5 533.167 1155.5 525.833 1155.5 518.5Z" fill="#504A77"/>
<path opacity="0.885" fill-rule="evenodd" clip-rule="evenodd" d="M2509.5 518.5C2510.83 518.5 2512.17 518.5 2513.5 518.5C2513.06 542.538 2513.56 566.538 2515 590.5C2518.89 600.034 2526.05 604.368 2536.5 603.5C2536.5 604.833 2536.5 606.167 2536.5 607.5C2522.94 609.647 2514.1 604.314 2510 591.5C2509.5 575.837 2509.33 560.17 2509.5 544.5C2507.5 544.5 2505.5 544.5 2503.5 544.5C2503.5 543.167 2503.5 541.833 2503.5 540.5C2505.5 540.5 2507.5 540.5 2509.5 540.5C2509.5 533.167 2509.5 525.833 2509.5 518.5Z" fill="#504A77"/>
<path opacity="0.929" fill-rule="evenodd" clip-rule="evenodd" d="M1024.5 519.5C1025.83 519.5 1027.17 519.5 1028.5 519.5C1028.67 545.169 1028.5 570.835 1028 596.5C1027 594.833 1026 593.167 1025 591.5C1024.5 567.502 1024.33 543.502 1024.5 519.5Z" fill="#504A77"/>
<path opacity="0.829" fill-rule="evenodd" clip-rule="evenodd" d="M1714.5 519.5C1716.83 519.5 1719.17 519.5 1721.5 519.5C1721.5 521.833 1721.5 524.167 1721.5 526.5C1719.17 526.5 1716.83 526.5 1714.5 526.5C1714.5 524.167 1714.5 521.833 1714.5 519.5Z" fill="black"/>
<path opacity="0.829" fill-rule="evenodd" clip-rule="evenodd" d="M1978.5 519.5C1980.83 519.5 1983.17 519.5 1985.5 519.5C1985.5 521.833 1985.5 524.167 1985.5 526.5C1983.17 526.5 1980.83 526.5 1978.5 526.5C1978.5 524.167 1978.5 521.833 1978.5 519.5Z" fill="black"/>
<path opacity="0.829" fill-rule="evenodd" clip-rule="evenodd" d="M3032.5 519.5C3034.83 519.5 3037.17 519.5 3039.5 519.5C3039.5 521.833 3039.5 524.167 3039.5 526.5C3037.17 526.5 3034.83 526.5 3032.5 526.5C3032.5 524.167 3032.5 521.833 3032.5 519.5Z" fill="black"/>
<path opacity="0.928" fill-rule="evenodd" clip-rule="evenodd" d="M976.5 530.5C978.136 531.749 979.303 533.416 980 535.5C980.5 559.498 980.667 583.498 980.5 607.5C979.167 607.5 977.833 607.5 976.5 607.5C976.5 581.833 976.5 556.167 976.5 530.5Z" fill="#504A77"/>
<path opacity="0.8" fill-rule="evenodd" clip-rule="evenodd" d="M1083.5 539.5C1086.17 539.5 1088.83 539.5 1091.5 539.5C1091.5 540.833 1091.5 542.167 1091.5 543.5C1073.61 545.892 1063.61 556.059 1061.5 574C1063.62 591.955 1073.62 602.122 1091.5 604.5C1091.5 605.833 1091.5 607.167 1091.5 608.5C1073.74 607.702 1062.58 598.702 1058 581.5C1055.56 560.687 1064.06 546.687 1083.5 539.5Z" fill="#504A77"/>
<path opacity="0.8" fill-rule="evenodd" clip-rule="evenodd" d="M1093.5 539.5C1114.72 541.222 1126.06 552.722 1127.5 574C1126.06 595.278 1114.72 606.778 1093.5 608.5C1093.5 607.167 1093.5 605.833 1093.5 604.5C1111.38 602.122 1121.38 591.955 1123.5 574C1121.39 556.059 1111.39 545.892 1093.5 543.5C1093.5 542.167 1093.5 540.833 1093.5 539.5Z" fill="#504A77"/>
<path opacity="0.8" fill-rule="evenodd" clip-rule="evenodd" d="M1222.5 539.5C1225.83 539.5 1229.17 539.5 1232.5 539.5C1232.5 540.833 1232.5 542.167 1232.5 543.5C1226.15 543.92 1220.15 545.587 1214.5 548.5C1213.37 546.926 1213.2 545.259 1214 543.5C1216.88 542.052 1219.71 540.719 1222.5 539.5Z" fill="black"/>
<path opacity="0.844" fill-rule="evenodd" clip-rule="evenodd" d="M1273.5 539.5C1296.68 537.018 1308.68 547.352 1309.5 570.5C1292.5 570.5 1275.5 570.5 1258.5 570.5C1258.33 569.178 1258.66 568.011 1259.5 567C1274.5 566.5 1289.5 566.333 1304.5 566.5C1303.22 552.55 1295.55 544.884 1281.5 543.5C1264.68 546.323 1256.02 556.323 1255.5 573.5C1258.02 589.186 1267.02 599.02 1282.5 603C1289.15 604.611 1295.82 604.778 1302.5 603.5C1302.5 605.167 1302.5 606.833 1302.5 608.5C1287.81 610.661 1274.48 607.494 1262.5 599C1251.25 587.028 1248.41 573.195 1254 557.5C1258.16 548.832 1264.66 542.832 1273.5 539.5Z" fill="#504A77"/>
<path opacity="0.813" fill-rule="evenodd" clip-rule="evenodd" d="M1408.5 539.5C1414.84 539.334 1421.18 539.5 1427.5 540C1433.63 540.051 1434.79 542.217 1431 546.5C1418.4 541.553 1407.07 543.553 1397 552.5C1393.6 558.326 1394.77 563.159 1400.5 567C1408.99 570.167 1417.66 572.834 1426.5 575C1436.72 580.295 1439.22 588.128 1434 598.5C1424.41 608.05 1412.91 611.216 1399.5 608C1393.37 607.949 1392.21 605.783 1396 601.5C1406.57 605.849 1416.73 605.015 1426.5 599C1431.82 594.474 1432.82 589.141 1429.5 583C1427.33 581.414 1425 580.08 1422.5 579C1414.31 577.287 1406.31 574.953 1398.5 572C1390.13 566.199 1388.29 558.699 1393 549.5C1397.19 544.496 1402.36 541.163 1408.5 539.5Z" fill="#504A77"/>
<path opacity="0.865" fill-rule="evenodd" clip-rule="evenodd" d="M1484.5 539.5C1497.65 536.665 1507.48 540.998 1514 552.5C1515.46 570.765 1515.96 589.098 1515.5 607.5C1514.17 607.5 1512.83 607.5 1511.5 607.5C1511.67 592.163 1511.5 576.83 1511 561.5C1507.1 545.464 1497.27 540.297 1481.5 546C1478.64 546.93 1476.31 548.597 1474.5 551C1472.09 551.779 1470.43 550.946 1469.5 548.5C1473.78 544.2 1478.78 541.2 1484.5 539.5Z" fill="#504A77"/>
<path opacity="0.797" fill-rule="evenodd" clip-rule="evenodd" d="M1540.5 539.5C1542.17 539.5 1543.83 539.5 1545.5 539.5C1553.03 560.248 1560.86 580.915 1569 601.5C1569.9 604.466 1569.4 607.133 1567.5 609.5C1557.38 586.593 1548.38 563.26 1540.5 539.5Z" fill="#504A77"/>
<path opacity="0.798" fill-rule="evenodd" clip-rule="evenodd" d="M1589.5 539.5C1591.66 539.116 1593.33 539.783 1594.5 541.5C1586.83 560.843 1579.16 580.176 1571.5 599.5C1570.22 597.821 1569.22 595.987 1568.5 594C1575.8 575.944 1582.8 557.777 1589.5 539.5Z" fill="#504A77"/>
<path opacity="0.8" fill-rule="evenodd" clip-rule="evenodd" d="M1642.5 539.5C1645.17 539.5 1647.83 539.5 1650.5 539.5C1650.5 540.833 1650.5 542.167 1650.5 543.5C1632.61 545.892 1622.61 556.059 1620.5 574C1622.62 591.955 1632.62 602.122 1650.5 604.5C1650.5 605.833 1650.5 607.167 1650.5 608.5C1632.74 607.702 1621.58 598.702 1617 581.5C1614.56 560.687 1623.06 546.687 1642.5 539.5Z" fill="#504A77"/>
<path opacity="0.8" fill-rule="evenodd" clip-rule="evenodd" d="M1652.5 539.5C1673.72 541.222 1685.06 552.722 1686.5 574C1685.06 595.278 1673.72 606.778 1652.5 608.5C1652.5 607.167 1652.5 605.833 1652.5 604.5C1670.38 602.122 1680.38 591.955 1682.5 574C1680.39 556.059 1670.39 545.892 1652.5 543.5C1652.5 542.167 1652.5 540.833 1652.5 539.5Z" fill="#504A77"/>
<path opacity="0.931" fill-rule="evenodd" clip-rule="evenodd" d="M1716.5 539.5C1717.83 539.5 1719.17 539.5 1720.5 539.5C1720.5 562.167 1720.5 584.833 1720.5 607.5C1719.17 607.5 1717.83 607.5 1716.5 607.5C1716.5 584.833 1716.5 562.167 1716.5 539.5Z" fill="#504A77"/>
<path opacity="0.8" fill-rule="evenodd" clip-rule="evenodd" d="M1766.5 539.5C1769.83 539.5 1773.17 539.5 1776.5 539.5C1776.5 540.833 1776.5 542.167 1776.5 543.5C1770.15 543.92 1764.15 545.587 1758.5 548.5C1757.37 546.926 1757.2 545.259 1758 543.5C1760.88 542.052 1763.71 540.719 1766.5 539.5Z" fill="black"/>
<path opacity="0.865" fill-rule="evenodd" clip-rule="evenodd" d="M1918.5 539.5C1931.65 536.665 1941.48 540.998 1948 552.5C1949.46 570.765 1949.96 589.098 1949.5 607.5C1948.17 607.5 1946.83 607.5 1945.5 607.5C1945.67 592.163 1945.5 576.83 1945 561.5C1941.1 545.464 1931.27 540.297 1915.5 546C1912.64 546.93 1910.31 548.597 1908.5 551C1906.09 551.779 1904.43 550.946 1903.5 548.5C1907.78 544.2 1912.78 541.2 1918.5 539.5Z" fill="#504A77"/>
<path opacity="0.931" fill-rule="evenodd" clip-rule="evenodd" d="M1980.5 539.5C1981.83 539.5 1983.17 539.5 1984.5 539.5C1984.5 562.167 1984.5 584.833 1984.5 607.5C1983.17 607.5 1981.83 607.5 1980.5 607.5C1980.5 584.833 1980.5 562.167 1980.5 539.5Z" fill="#504A77"/>
<path opacity="0.8" fill-rule="evenodd" clip-rule="evenodd" d="M2031.5 539.5C2034.83 539.5 2038.17 539.5 2041.5 539.5C2041.5 540.833 2041.5 542.167 2041.5 543.5C2035.15 543.92 2029.15 545.587 2023.5 548.5C2022.37 546.926 2022.2 545.259 2023 543.5C2025.88 542.052 2028.71 540.719 2031.5 539.5Z" fill="black"/>
<path opacity="0.844" fill-rule="evenodd" clip-rule="evenodd" d="M2081.5 539.5C2104.68 537.018 2116.68 547.352 2117.5 570.5C2100.5 570.5 2083.5 570.5 2066.5 570.5C2066.33 569.178 2066.66 568.011 2067.5 567C2082.5 566.5 2097.5 566.333 2112.5 566.5C2111.22 552.55 2103.55 544.884 2089.5 543.5C2072.68 546.323 2064.02 556.323 2063.5 573.5C2066.02 589.186 2075.02 599.02 2090.5 603C2097.15 604.611 2103.82 604.778 2110.5 603.5C2110.5 605.167 2110.5 606.833 2110.5 608.5C2095.81 610.661 2082.48 607.494 2070.5 599C2059.25 587.028 2056.41 573.195 2062 557.5C2066.16 548.832 2072.66 542.832 2081.5 539.5Z" fill="#504A77"/>
<path opacity="0.865" fill-rule="evenodd" clip-rule="evenodd" d="M2221.5 539.5C2234.65 536.665 2244.48 540.998 2251 552.5C2252.46 570.765 2252.96 589.098 2252.5 607.5C2251.17 607.5 2249.83 607.5 2248.5 607.5C2248.67 592.163 2248.5 576.83 2248 561.5C2244.1 545.464 2234.27 540.297 2218.5 546C2215.64 546.93 2213.31 548.597 2211.5 551C2209.09 551.779 2207.43 550.946 2206.5 548.5C2210.78 544.2 2215.78 541.2 2221.5 539.5Z" fill="#504A77"/>
<path opacity="0.797" fill-rule="evenodd" clip-rule="evenodd" d="M2334.5 539.5C2336.17 539.5 2337.83 539.5 2339.5 539.5C2347.03 560.248 2354.86 580.915 2363 601.5C2363.9 604.466 2363.4 607.133 2361.5 609.5C2351.38 586.593 2342.38 563.26 2334.5 539.5Z" fill="#504A77"/>
<path opacity="0.798" fill-rule="evenodd" clip-rule="evenodd" d="M2383.5 539.5C2385.66 539.116 2387.33 539.783 2388.5 541.5C2380.83 560.843 2373.16 580.176 2365.5 599.5C2364.22 597.821 2363.22 595.987 2362.5 594C2369.8 575.944 2376.8 557.777 2383.5 539.5Z" fill="#504A77"/>
<path opacity="0.8" fill-rule="evenodd" clip-rule="evenodd" d="M2436.5 539.5C2439.17 539.5 2441.83 539.5 2444.5 539.5C2444.5 540.833 2444.5 542.167 2444.5 543.5C2426.61 545.892 2416.61 556.059 2414.5 574C2416.62 591.955 2426.62 602.122 2444.5 604.5C2444.5 605.833 2444.5 607.167 2444.5 608.5C2426.74 607.702 2415.58 598.702 2411 581.5C2408.56 560.687 2417.06 546.687 2436.5 539.5Z" fill="#504A77"/>
<path opacity="0.8" fill-rule="evenodd" clip-rule="evenodd" d="M2446.5 539.5C2467.72 541.222 2479.06 552.722 2480.5 574C2479.06 595.278 2467.72 606.778 2446.5 608.5C2446.5 607.167 2446.5 605.833 2446.5 604.5C2464.38 602.122 2474.38 591.955 2476.5 574C2474.39 556.059 2464.39 545.892 2446.5 543.5C2446.5 542.167 2446.5 540.833 2446.5 539.5Z" fill="#504A77"/>
<path opacity="0.8" fill-rule="evenodd" clip-rule="evenodd" d="M2576.5 539.5C2579.83 539.5 2583.17 539.5 2586.5 539.5C2586.5 540.833 2586.5 542.167 2586.5 543.5C2580.15 543.92 2574.15 545.587 2568.5 548.5C2567.37 546.926 2567.2 545.259 2568 543.5C2570.88 542.052 2573.71 540.719 2576.5 539.5Z" fill="black"/>
<path opacity="0.844" fill-rule="evenodd" clip-rule="evenodd" d="M2627.5 539.5C2650.68 537.018 2662.68 547.352 2663.5 570.5C2646.5 570.5 2629.5 570.5 2612.5 570.5C2612.33 569.178 2612.66 568.011 2613.5 567C2628.5 566.5 2643.5 566.333 2658.5 566.5C2657.22 552.55 2649.55 544.884 2635.5 543.5C2618.68 546.323 2610.02 556.323 2609.5 573.5C2612.02 589.186 2621.02 599.02 2636.5 603C2643.15 604.611 2649.82 604.778 2656.5 603.5C2656.5 605.167 2656.5 606.833 2656.5 608.5C2641.81 610.661 2628.48 607.494 2616.5 599C2605.25 587.028 2602.41 573.195 2608 557.5C2612.16 548.832 2618.66 542.832 2627.5 539.5Z" fill="#504A77"/>
<path opacity="0.813" fill-rule="evenodd" clip-rule="evenodd" d="M2762.5 539.5C2768.84 539.334 2775.18 539.5 2781.5 540C2787.63 540.051 2788.79 542.217 2785 546.5C2772.4 541.553 2761.07 543.553 2751 552.5C2747.6 558.326 2748.77 563.159 2754.5 567C2762.99 570.167 2771.66 572.834 2780.5 575C2790.72 580.295 2793.22 588.128 2788 598.5C2778.41 608.05 2766.91 611.216 2753.5 608C2747.37 607.949 2746.21 605.783 2750 601.5C2760.57 605.849 2770.73 605.015 2780.5 599C2785.82 594.474 2786.82 589.141 2783.5 583C2781.33 581.414 2779 580.08 2776.5 579C2768.31 577.287 2760.31 574.953 2752.5 572C2744.13 566.199 2742.29 558.699 2747 549.5C2751.19 544.496 2756.36 541.163 2762.5 539.5Z" fill="#504A77"/>
<path opacity="0.844" fill-rule="evenodd" clip-rule="evenodd" d="M2837.5 539.5C2860.68 537.018 2872.68 547.352 2873.5 570.5C2856.5 570.5 2839.5 570.5 2822.5 570.5C2822.33 569.178 2822.66 568.011 2823.5 567C2838.5 566.5 2853.5 566.333 2868.5 566.5C2867.22 552.55 2859.55 544.884 2845.5 543.5C2828.68 546.323 2820.02 556.323 2819.5 573.5C2822.02 589.186 2831.02 599.02 2846.5 603C2853.15 604.611 2859.82 604.778 2866.5 603.5C2866.5 605.167 2866.5 606.833 2866.5 608.5C2851.81 610.661 2838.48 607.494 2826.5 599C2815.25 587.028 2812.41 573.195 2818 557.5C2822.16 548.832 2828.66 542.832 2837.5 539.5Z" fill="#504A77"/>
<path opacity="0.8" fill-rule="evenodd" clip-rule="evenodd" d="M2917.5 539.5C2920.83 539.5 2924.17 539.5 2927.5 539.5C2927.5 540.833 2927.5 542.167 2927.5 543.5C2921.15 543.92 2915.15 545.587 2909.5 548.5C2908.37 546.926 2908.2 545.259 2909 543.5C2911.88 542.052 2914.71 540.719 2917.5 539.5Z" fill="black"/>
<path opacity="0.797" fill-rule="evenodd" clip-rule="evenodd" d="M2951.5 539.5C2953.17 539.5 2954.83 539.5 2956.5 539.5C2964.03 560.248 2971.86 580.915 2980 601.5C2980.9 604.466 2980.4 607.133 2978.5 609.5C2968.38 586.593 2959.38 563.26 2951.5 539.5Z" fill="#504A77"/>
<path opacity="0.798" fill-rule="evenodd" clip-rule="evenodd" d="M3000.5 539.5C3002.66 539.116 3004.33 539.783 3005.5 541.5C2997.83 560.843 2990.16 580.176 2982.5 599.5C2981.22 597.821 2980.22 595.987 2979.5 594C2986.8 575.944 2993.8 557.777 3000.5 539.5Z" fill="#504A77"/>
<path opacity="0.931" fill-rule="evenodd" clip-rule="evenodd" d="M3034.5 539.5C3035.83 539.5 3037.17 539.5 3038.5 539.5C3038.5 562.167 3038.5 584.833 3038.5 607.5C3037.17 607.5 3035.83 607.5 3034.5 607.5C3034.5 584.833 3034.5 562.167 3034.5 539.5Z" fill="#504A77"/>
<path opacity="0.821" fill-rule="evenodd" clip-rule="evenodd" d="M3098.5 539.5C3105.17 539.5 3111.83 539.5 3118.5 539.5C3118.79 541.288 3118.45 542.955 3117.5 544.5C3101.33 541.581 3087.83 546.248 3077 558.5C3068.89 573.321 3071.39 586.155 3084.5 597C3094.69 603.254 3105.69 605.421 3117.5 603.5C3118.45 605.045 3118.79 606.712 3118.5 608.5C3101.22 611.146 3086.39 606.479 3074 594.5C3065.33 580.833 3065.33 567.167 3074 553.5C3080.82 546.343 3088.99 541.676 3098.5 539.5Z" fill="#504A77"/>
<path opacity="0.844" fill-rule="evenodd" clip-rule="evenodd" d="M3162.5 539.5C3185.68 537.018 3197.68 547.352 3198.5 570.5C3181.5 570.5 3164.5 570.5 3147.5 570.5C3147.33 569.178 3147.66 568.011 3148.5 567C3163.5 566.5 3178.5 566.333 3193.5 566.5C3192.22 552.55 3184.55 544.884 3170.5 543.5C3153.68 546.323 3145.02 556.323 3144.5 573.5C3147.02 589.186 3156.02 599.02 3171.5 603C3178.15 604.611 3184.82 604.778 3191.5 603.5C3191.5 605.167 3191.5 606.833 3191.5 608.5C3176.81 610.661 3163.48 607.494 3151.5 599C3140.25 587.028 3137.41 573.195 3143 557.5C3147.16 548.832 3153.66 542.832 3162.5 539.5Z" fill="#504A77"/>
<path opacity="0.813" fill-rule="evenodd" clip-rule="evenodd" d="M3243.5 539.5C3249.84 539.334 3256.18 539.5 3262.5 540C3268.63 540.051 3269.79 542.217 3266 546.5C3253.4 541.553 3242.07 543.553 3232 552.5C3228.6 558.326 3229.77 563.159 3235.5 567C3243.99 570.167 3252.66 572.834 3261.5 575C3271.72 580.295 3274.22 588.128 3269 598.5C3259.41 608.05 3247.91 611.216 3234.5 608C3228.37 607.949 3227.21 605.783 3231 601.5C3241.57 605.849 3251.73 605.015 3261.5 599C3266.82 594.474 3267.82 589.141 3264.5 583C3262.33 581.414 3260 580.08 3257.5 579C3249.31 577.287 3241.31 574.953 3233.5 572C3225.13 566.199 3223.29 558.699 3228 549.5C3232.19 544.496 3237.36 541.163 3243.5 539.5Z" fill="#504A77"/>
<path opacity="0.897" fill-rule="evenodd" clip-rule="evenodd" d="M1162.5 540.5C1168.17 540.5 1173.83 540.5 1179.5 540.5C1179.5 541.833 1179.5 543.167 1179.5 544.5C1173.83 544.5 1168.17 544.5 1162.5 544.5C1162.5 543.167 1162.5 541.833 1162.5 540.5Z" fill="black"/>
<path opacity="0.938" fill-rule="evenodd" clip-rule="evenodd" d="M1206.5 540.5C1207.83 540.5 1209.17 540.5 1210.5 540.5C1210.5 562.833 1210.5 585.167 1210.5 607.5C1209.17 607.5 1207.83 607.5 1206.5 607.5C1206.5 585.167 1206.5 562.833 1206.5 540.5Z" fill="#504A77"/>
<path opacity="0.938" fill-rule="evenodd" clip-rule="evenodd" d="M1750.5 540.5C1751.83 540.5 1753.17 540.5 1754.5 540.5C1754.5 562.833 1754.5 585.167 1754.5 607.5C1753.17 607.5 1751.83 607.5 1750.5 607.5C1750.5 585.167 1750.5 562.833 1750.5 540.5Z" fill="#504A77"/>
<path opacity="0.897" fill-rule="evenodd" clip-rule="evenodd" d="M1864.5 540.5C1870.17 540.5 1875.83 540.5 1881.5 540.5C1881.5 541.833 1881.5 543.167 1881.5 544.5C1875.83 544.5 1870.17 544.5 1864.5 544.5C1864.5 543.167 1864.5 541.833 1864.5 540.5Z" fill="black"/>
<path opacity="0.938" fill-rule="evenodd" clip-rule="evenodd" d="M2015.5 540.5C2016.83 540.5 2018.17 540.5 2019.5 540.5C2019.5 562.833 2019.5 585.167 2019.5 607.5C2018.17 607.5 2016.83 607.5 2015.5 607.5C2015.5 585.167 2015.5 562.833 2015.5 540.5Z" fill="#504A77"/>
<path opacity="0.897" fill-rule="evenodd" clip-rule="evenodd" d="M2516.5 540.5C2522.17 540.5 2527.83 540.5 2533.5 540.5C2533.5 541.833 2533.5 543.167 2533.5 544.5C2527.83 544.5 2522.17 544.5 2516.5 544.5C2516.5 543.167 2516.5 541.833 2516.5 540.5Z" fill="black"/>
<path opacity="0.938" fill-rule="evenodd" clip-rule="evenodd" d="M2560.5 540.5C2561.83 540.5 2563.17 540.5 2564.5 540.5C2564.5 562.833 2564.5 585.167 2564.5 607.5C2563.17 607.5 2561.83 607.5 2560.5 607.5C2560.5 585.167 2560.5 562.833 2560.5 540.5Z" fill="#504A77"/>
<path opacity="0.938" fill-rule="evenodd" clip-rule="evenodd" d="M2901.5 540.5C2902.83 540.5 2904.17 540.5 2905.5 540.5C2905.5 562.833 2905.5 585.167 2905.5 607.5C2904.17 607.5 2902.83 607.5 2901.5 607.5C2901.5 585.167 2901.5 562.833 2901.5 540.5Z" fill="#504A77"/>
<path opacity="0.808" fill-rule="evenodd" clip-rule="evenodd" d="M1482.5 559.5C1491.61 558.334 1500.11 560.001 1508 564.5C1508.67 566.5 1508.67 568.5 1508 570.5C1494.83 560.971 1482.5 561.971 1471 573.5C1465.53 584.466 1467.7 593.633 1477.5 601C1487.97 605.957 1497.97 605.124 1507.5 598.5C1508.77 600.695 1508.77 602.861 1507.5 605C1499.15 608.355 1490.49 609.355 1481.5 608C1465.18 601.854 1459.68 590.354 1465 573.5C1468.9 566.313 1474.74 561.646 1482.5 559.5Z" fill="#504A77"/>
<path opacity="0.808" fill-rule="evenodd" clip-rule="evenodd" d="M1916.5 559.5C1925.61 558.334 1934.11 560.001 1942 564.5C1942.67 566.5 1942.67 568.5 1942 570.5C1928.83 560.971 1916.5 561.971 1905 573.5C1899.53 584.466 1901.7 593.633 1911.5 601C1921.97 605.957 1931.97 605.124 1941.5 598.5C1942.77 600.695 1942.77 602.861 1941.5 605C1933.15 608.355 1924.49 609.355 1915.5 608C1899.18 601.854 1893.68 590.354 1899 573.5C1902.9 566.313 1908.74 561.646 1916.5 559.5Z" fill="#504A77"/>
<path opacity="0.808" fill-rule="evenodd" clip-rule="evenodd" d="M2219.5 559.5C2228.61 558.334 2237.11 560.001 2245 564.5C2245.67 566.5 2245.67 568.5 2245 570.5C2231.83 560.971 2219.5 561.971 2208 573.5C2202.53 584.466 2204.7 593.633 2214.5 601C2224.97 605.957 2234.97 605.124 2244.5 598.5C2245.77 600.695 2245.77 602.861 2244.5 605C2236.15 608.355 2227.49 609.355 2218.5 608C2202.18 601.854 2196.68 590.354 2202 573.5C2205.9 566.313 2211.74 561.646 2219.5 559.5Z" fill="#504A77"/>
</svg>
